<svg xmlns="http://www.w3.org/2000/svg" version="1.1" xmlns:xlink="http://www.w3.org/1999/xlink" xmlns:svgjs="http://svgjs.dev/svgjs" viewBox="0 0 8.985901190207423 6.993716803219153"><g transform="matrix(0.8400506199610094,0,0,0.8400506199610094,1.2779649956542403,4.7271469641992585)"><g transform="matrix(1,0,0,1,0,0)" clip-path="url(#SvgjsClipPath9219)"><g clip-path="url(#SvgjsClipPath921722d02fdb-b2e1-49cc-8c0b-62553963e091)"><path d=" M 5.137105946188187 -0.7350713182957951 L 3.7855689803845647 -0.7350713182957951 L 2.434032014580942 -0.7350713182957951 L 1.732889133449922 -0.25 L 3.7855689803845647 -0.25 L 5.838248827319207 -0.25 L 5.137105946188187 -0.7350713182957951 Z" fill="#d0d2d3" transform="matrix(1,0,0,1,0,0)" fill-rule="evenodd"></path></g><g clip-path="url(#SvgjsClipPath921722d02fdb-b2e1-49cc-8c0b-62553963e091)"><path d=" M 3.0610754260364814 -3.442815384546453 L 3.359964043214891 -3.442815384546453 L 3.359964043214891 -3.3319775223427928 L 3.0610754260364814 -3.3319775223427928 Z" fill="#000000" transform="matrix(1,0,0,1,0,0)" fill-rule="nonzero"></path></g><g clip-path="url(#SvgjsClipPath921722d02fdb-b2e1-49cc-8c0b-62553963e091)"><path d=" M 2.604336257910724 -3.442815384546453 L 2.903224875089134 -3.442815384546453 L 2.903224875089134 -3.3319775223427928 L 2.604336257910724 -3.3319775223427928 Z" fill="#000000" transform="matrix(1,0,0,1,0,0)" fill-rule="nonzero"></path></g><g clip-path="url(#SvgjsClipPath921722d02fdb-b2e1-49cc-8c0b-62553963e091)"><path d=" M 2.604336257910724 -3.6308661395212027 L 2.7151741201143844 -3.6308661395212027 L 2.7151741201143844 -3.3319775223427923 L 2.604336257910724 -3.3319775223427923 Z" fill="#000000" transform="matrix(1,0,0,1,0,0)" fill-rule="nonzero"></path></g><g clip-path="url(#SvgjsClipPath921722d02fdb-b2e1-49cc-8c0b-62553963e091)"><path d=" M 3.249437523320792 -3.442815384546453 L 3.3602753855244525 -3.442815384546453 L 3.3602753855244525 -3.143926767368043 L 3.249437523320792 -3.143926767368043 Z" fill="#000000" transform="matrix(1,0,0,1,0,0)" fill-rule="nonzero"></path></g><g clip-path="url(#SvgjsClipPath921722d02fdb-b2e1-49cc-8c0b-62553963e091)"><path d=" M 2.604336257910724 -4.087916649956521 L 2.7151741201143844 -4.087916649956521 L 2.7151741201143844 -3.789028032778111 L 2.604336257910724 -3.789028032778111 Z" fill="#000000" transform="matrix(1,0,0,1,0,0)" fill-rule="nonzero"></path></g><g clip-path="url(#SvgjsClipPath921722d02fdb-b2e1-49cc-8c0b-62553963e091)"><path d=" M 2.4869602072062853 -4.295581970433604 L 2.832238828509261 -4.295581970433604 L 2.832238828509261 -3.9503033491306283 L 2.4869602072062853 -3.9503033491306283 Z" fill="#000000" transform="matrix(1,0,0,1,0,0)" fill-rule="nonzero"></path></g><g clip-path="url(#SvgjsClipPath921722d02fdb-b2e1-49cc-8c0b-62553963e091)"><path d=" M 2.604336257910724 -4.178205919729166 L 2.7151741201143844 -4.178205919729166 L 2.7151741201143844 -4.067368057525505 L 2.604336257910724 -4.067368057525505 Z" fill="#ffffff" transform="matrix(1,0,0,1,0,0)" fill-rule="nonzero"></path></g><g clip-path="url(#SvgjsClipPath921722d02fdb-b2e1-49cc-8c0b-62553963e091)"><path d=" M 1.8225557186034451 -1.5395798462010157 L 2.121444335781855 -1.5395798462010157 L 2.121444335781855 -1.4287419839973552 L 1.8225557186034451 -1.4287419839973552 Z" fill="#000000" transform="matrix(1,0,0,1,0,0)" fill-rule="nonzero"></path></g><g clip-path="url(#SvgjsClipPath921722d02fdb-b2e1-49cc-8c0b-62553963e091)"><path d=" M 1.3655052081681265 -1.5395798462010157 L 1.6643938253465365 -1.5395798462010157 L 1.6643938253465365 -1.4287419839973552 L 1.3655052081681265 -1.4287419839973552 Z" fill="#000000" transform="matrix(1,0,0,1,0,0)" fill-rule="nonzero"></path></g><g clip-path="url(#SvgjsClipPath921722d02fdb-b2e1-49cc-8c0b-62553963e091)"><path d=" M 1.3655052081681265 -1.7276306011757647 L 1.4763430703717866 -1.7276306011757647 L 1.4763430703717866 -1.4287419839973552 L 1.3655052081681265 -1.4287419839973552 Z" fill="#000000" transform="matrix(1,0,0,1,0,0)" fill-rule="nonzero"></path></g><g clip-path="url(#SvgjsClipPath921722d02fdb-b2e1-49cc-8c0b-62553963e091)"><path d=" M 1.3655052081681265 -2.1846811116110834 L 1.4763430703717866 -2.1846811116110834 L 1.4763430703717866 -1.8857924944326738 L 1.3655052081681265 -1.8857924944326738 Z" fill="#000000" transform="matrix(1,0,0,1,0,0)" fill-rule="nonzero"></path></g><g clip-path="url(#SvgjsClipPath921722d02fdb-b2e1-49cc-8c0b-62553963e091)"><path d=" M 1.1774544531933768 -2.1846811116110834 L 1.4763430703717868 -2.1846811116110834 L 1.4763430703717868 -2.0738432494074233 L 1.1774544531933768 -2.0738432494074233 Z" fill="#000000" transform="matrix(1,0,0,1,0,0)" fill-rule="nonzero"></path></g><g clip-path="url(#SvgjsClipPath921722d02fdb-b2e1-49cc-8c0b-62553963e091)"><path d=" M 0.7204039427580581 -2.1846811116110834 L 1.0192925599364682 -2.1846811116110834 L 1.0192925599364682 -2.0738432494074233 L 0.7204039427580581 -2.0738432494074233 Z" fill="#000000" transform="matrix(1,0,0,1,0,0)" fill-rule="nonzero"></path></g><g clip-path="url(#SvgjsClipPath921722d02fdb-b2e1-49cc-8c0b-62553963e091)"><path d=" M 0.5127386222809753 -2.3017458200059604 L 0.858017243583951 -2.3017458200059604 L 0.858017243583951 -1.9564671987029847 L 0.5127386222809753 -1.9564671987029847 Z" fill="#000000" transform="matrix(1,0,0,1,0,0)" fill-rule="nonzero"></path></g><g clip-path="url(#SvgjsClipPath921722d02fdb-b2e1-49cc-8c0b-62553963e091)"><path d=" M 0.6301146729854135 -2.1846811116110834 L 0.7409525351890738 -2.1846811116110834 L 0.7409525351890738 -2.0738432494074233 L 0.6301146729854135 -2.0738432494074233 Z" fill="#ec1c24" transform="matrix(1,0,0,1,0,0)" fill-rule="nonzero"></path></g><g clip-path="url(#SvgjsClipPath921722d02fdb-b2e1-49cc-8c0b-62553963e091)"><path d=" M 5.532822021640021 -2.2105225233046335 L 5.83171063881843 -2.2105225233046335 L 5.83171063881843 -2.099684661100973 L 5.532822021640021 -2.099684661100973 Z" fill="#000000" transform="matrix(1,0,0,1,0,0)" fill-rule="nonzero"></path></g><g clip-path="url(#SvgjsClipPath921722d02fdb-b2e1-49cc-8c0b-62553963e091)"><path d=" M 5.9898725320753385 -2.2105225233046335 L 6.288761149253748 -2.2105225233046335 L 6.288761149253748 -2.099684661100973 L 5.9898725320753385 -2.099684661100973 Z" fill="#000000" transform="matrix(1,0,0,1,0,0)" fill-rule="nonzero"></path></g><g clip-path="url(#SvgjsClipPath921722d02fdb-b2e1-49cc-8c0b-62553963e091)"><path d=" M 6.177923287050088 -2.2105225233046335 L 6.288761149253748 -2.2105225233046335 L 6.288761149253748 -1.9116339061262235 L 6.177923287050088 -1.9116339061262235 Z" fill="#000000" transform="matrix(1,0,0,1,0,0)" fill-rule="nonzero"></path></g><g clip-path="url(#SvgjsClipPath921722d02fdb-b2e1-49cc-8c0b-62553963e091)"><path d=" M 6.177923287050088 -1.7537833551788755 L 6.288761149253748 -1.7537833551788755 L 6.288761149253748 -1.4548947380004655 L 6.177923287050088 -1.4548947380004655 Z" fill="#000000" transform="matrix(1,0,0,1,0,0)" fill-rule="nonzero"></path></g><g clip-path="url(#SvgjsClipPath921722d02fdb-b2e1-49cc-8c0b-62553963e091)"><path d=" M 6.177923287050088 -1.565421257894565 L 6.476811904228498 -1.565421257894565 L 6.476811904228498 -1.454583395690905 L 6.177923287050088 -1.454583395690905 Z" fill="#000000" transform="matrix(1,0,0,1,0,0)" fill-rule="nonzero"></path></g><g clip-path="url(#SvgjsClipPath921722d02fdb-b2e1-49cc-8c0b-62553963e091)"><path d=" M 6.634973797485406 -1.565421257894565 L 6.933862414663816 -1.565421257894565 L 6.933862414663816 -1.454583395690905 L 6.634973797485406 -1.454583395690905 Z" fill="#000000" transform="matrix(1,0,0,1,0,0)" fill-rule="nonzero"></path></g><g clip-path="url(#SvgjsClipPath921722d02fdb-b2e1-49cc-8c0b-62553963e091)"><path d=" M 6.7962491138379235 -1.6827973085990031 L 7.141527735140899 -1.6827973085990031 L 7.141527735140899 -1.3375186872960274 L 6.7962491138379235 -1.3375186872960274 Z" fill="#000000" transform="matrix(1,0,0,1,0,0)" fill-rule="nonzero"></path></g><g clip-path="url(#SvgjsClipPath921722d02fdb-b2e1-49cc-8c0b-62553963e091)"><path d=" M 6.913625164542362 -1.565421257894565 L 7.024463026746023 -1.565421257894565 L 7.024463026746023 -1.454583395690905 L 6.913625164542362 -1.454583395690905 Z" fill="#ffffff" transform="matrix(1,0,0,1,0,0)" fill-rule="nonzero"></path></g><g clip-path="url(#SvgjsClipPath921722d02fdb-b2e1-49cc-8c0b-62553963e091)"><path d=" M 4.645496439391616 -3.114660590269324 L 4.756334301595276 -3.114660590269324 L 4.756334301595276 -2.8157719730909134 L 4.645496439391616 -2.8157719730909134 Z" fill="#000000" transform="matrix(1,0,0,1,0,0)" fill-rule="nonzero"></path></g><g clip-path="url(#SvgjsClipPath921722d02fdb-b2e1-49cc-8c0b-62553963e091)"><path d=" M 4.645496439391616 -3.5713997583950814 L 4.756334301595276 -3.5713997583950814 L 4.756334301595276 -3.2725111412166714 L 4.645496439391616 -3.2725111412166714 Z" fill="#000000" transform="matrix(1,0,0,1,0,0)" fill-rule="nonzero"></path></g><g clip-path="url(#SvgjsClipPath921722d02fdb-b2e1-49cc-8c0b-62553963e091)"><path d=" M 4.528431730996738 -3.823275686829804 L 4.873710352299714 -3.823275686829804 L 4.873710352299714 -3.477997065526828 L 4.528431730996738 -3.477997065526828 Z" fill="#000000" transform="matrix(1,0,0,1,0,0)" fill-rule="nonzero"></path></g><g clip-path="url(#SvgjsClipPath921722d02fdb-b2e1-49cc-8c0b-62553963e091)"><path d=" M 4.645496439391616 -3.7058996361253658 L 4.756334301595276 -3.7058996361253658 L 4.756334301595276 -3.5950617739217057 L 4.645496439391616 -3.5950617739217057 Z" fill="#ec1c24" transform="matrix(1,0,0,1,0,0)" fill-rule="nonzero"></path></g><g clip-path="url(#SvgjsClipPath921722d02fdb-b2e1-49cc-8c0b-62553963e091)"><path d=" M 5.224281792865224 -2.868388823406696 L 3.799890726624364 -2.868388823406696 C 3.749453272475507 -2.868388823406696 3.7080447453039147 -2.9097973505782884 3.7080447453039147 -2.9605461470367063 L 3.7080447453039147 -3.0776108554315833 C 3.7080447453039147 -3.1283596518900008 3.6666362181323224 -3.1697681790615926 3.6158874216739054 -3.1697681790615926 L 2.6373385427241733 -3.1697681790615926 C 2.586589746265756 -3.1697681790615926 2.5451812190941636 -3.1283596518900008 2.5451812190941636 -3.0776108554315833 L 2.5451812190941636 -2.9605461470367063 C 2.5451812190941636 -2.9097973505782884 2.503772691922572 -2.868388823406696 2.4530238954641543 -2.868388823406696 L 2.2789835444196425 -2.868388823406696 C 2.2136016594118653 -2.868388823406696 2.1600507821674 -2.814837946162231 2.1600507821674 -2.7497674034640145 L 2.1600507821674 -2.2746590390741668 L 5.342903212807906 -2.2746590390741668 L 5.342903212807906 -2.7497674034640145 C 5.342903212807906 -2.8151492884717917 5.289352335563441 -2.868388823406696 5.2239704505556634 -2.868388823406696 Z" fill="#000000" transform="matrix(1,0,0,1,0,0)" fill-rule="evenodd"></path></g><g clip-path="url(#SvgjsClipPath921722d02fdb-b2e1-49cc-8c0b-62553963e091)"><path d=" M 5.5016877906839365 -2.5178173828411863 L 2.069450170085194 -2.5178173828411863 C 1.9620370732867027 -2.5090997981734824 1.919694519186428 -2.4496334170473615 1.9312141846401794 -2.348758508749648 C 1.9978414388862 -1.7920784592548595 2.0644686931322207 -1.2353984097600712 2.131095947378241 -0.6790297025748435 C 2.1500878282614524 -0.5977693597794627 2.205195417053722 -0.5632103634182091 2.2848990483012983 -0.5610309672512832 L 5.286861597086954 -0.5610309672512832 C 5.3665652283345295 -0.5632103634182091 5.421361474817237 -0.597458017469902 5.44035335570045 -0.6790297025748435 C 5.506980609946471 -1.2357097520696314 5.573296521882931 -1.7923898015644202 5.640235118438511 -2.3487585087496483 C 5.651754783892262 -2.4499447593569226 5.609412229791987 -2.509099798173483 5.5016877906839365 -2.5178173828411863 Z" fill="#ffffff" transform="matrix(1,0,0,1,0,0)" fill-rule="evenodd"></path></g><g clip-path="url(#SvgjsClipPath921722d02fdb-b2e1-49cc-8c0b-62553963e091)"><path d=" M 5.2874842817060745 -0.499385189958236 L 2.284587705991737 -0.499385189958236 C 2.1703250783829073 -0.5024986130538447 2.094980239469183 -0.5613423095608439 2.0710068816329983 -0.6650192986446046 L 2.069761512394755 -0.6715574871453822 L 1.869879749656693 -2.341597635629748 C 1.862096191917672 -2.411026970661816 1.8751725689192273 -2.467379928692329 1.9091088806613592 -2.50847711355436 C 1.9430451924034913 -2.5498856407259525 1.995350700409713 -2.5735476562525768 2.0641573508226596 -2.579151817824672 L 2.069138827775633 -2.579151817824672 C 2.069138827775633 -2.579151817824672 5.506357925327347 -2.579151817824672 5.506357925327347 -2.579151817824672 C 5.575475918049856 -2.5735476562525768 5.627470083746516 -2.5498856407259525 5.6614063954886475 -2.50847711355436 C 5.695342707230779 -2.467068586382768 5.708730426541896 -2.411026970661816 5.700946868802875 -2.341597635629748 L 5.49981973682657 -0.6647079563350435 C 5.475535036680824 -0.5610309672512828 5.400501540076661 -0.5024986130538447 5.288106966325195 -0.49938518995823555 L 5.287172939396513 -0.49938518995823555 Z M 2.1918076977426058 -0.6896153410999117 C 2.201459309338992 -0.6503862100952453 2.2220079017700076 -0.6242334560921345 2.2864557598491024 -0.6223654022347693 L 5.285927570158272 -0.6223654022347693 C 5.349441401308683 -0.6245447984016952 5.369989993739699 -0.650697552404806 5.379952947645647 -0.6896153410999117 L 5.579212025764587 -2.3559193818695476 C 5.582014106550634 -2.3795813973961715 5.582014106550634 -2.4119609975904988 5.567069675691714 -2.430018851545028 C 5.555550010237962 -2.4443405977848274 5.532510679330461 -2.453058182452531 5.499508394517012 -2.455860263238578 L 2.0722522508712418 -2.455860263238578 C 2.0489015776541786 -2.453680867071652 2.019012715936338 -2.4474540208804356 2.0046909696965387 -2.430018851545028 C 1.9897465388376183 -2.4116496552809386 1.9897465388376183 -2.379270055086611 1.9925486196236657 -2.3556080395599865 L 2.1918076977426058 -0.6896153410999117 Z" fill="#000000" transform="matrix(1,0,0,1,0,0)" fill-rule="nonzero"></path></g><g clip-path="url(#SvgjsClipPath921722d02fdb-b2e1-49cc-8c0b-62553963e091)"><path d=" M 5.5016877906839365 -2.5178173828411863 L 2.069450170085194 -2.5178173828411863 C 1.9620370732867027 -2.5090997981734824 1.919694519186428 -2.4496334170473615 1.9312141846401794 -2.348758508749648 C 1.9495833809042693 -2.1943327232074696 1.96826391947792 -2.039906937665291 1.9866331157420096 -1.8857924944326734 L 5.584816187336681 -1.8857924944326734 C 5.603185383600771 -2.0402182799748516 5.62155457986486 -2.1946440655170303 5.640235118438511 -2.348758508749648 C 5.651754783892262 -2.4499447593569217 5.609412229791987 -2.5090997981734824 5.5016877906839365 -2.517817382841186 Z" fill="#ec1c24" transform="matrix(1,0,0,1,0,0)" fill-rule="evenodd" stroke-miterlimit="10" stroke-width="0.12298021227653329" stroke="#000000"></path></g><g clip-path="url(#SvgjsClipPath921722d02fdb-b2e1-49cc-8c0b-62553963e091)"><path d=" M 2.0485902353446175 -2.298321054600791 C 2.0510809738211044 -2.298632396910352 2.052949027678469 -2.298943739219913 2.055751108464517 -2.299255081529474 L 5.517566248471539 -2.299255081529474 C 5.519434302328904 -2.299255081529474 5.520991013876708 -2.298632396910352 5.522547725424513 -2.298321054600791 L 5.530019940853972 -2.3609008588225207 C 5.532822021640021 -2.3851855589682662 5.529708598544412 -2.3970165667315784 5.5290859139252895 -2.398573278279383 C 5.527217860067925 -2.400129989827187 5.517254906161979 -2.405111466780161 5.497640340659645 -2.4069795206375257 L 2.075677016276411 -2.4069795206375257 C 2.0538830546071516 -2.405111466780161 2.0439201007012047 -2.400129989827187 2.0429860737725223 -2.3995073052080653 C 2.0417407045342792 -2.39732790904114 2.0386272814386706 -2.3854969012778273 2.0411180199151575 -2.361834885751203 L 2.0485902353446175 -2.298321054600791 Z" fill="#f0666c" transform="matrix(1,0,0,1,0,0)" fill-rule="evenodd"></path></g></g><g><path d=" M 0.096 0.18000000000000027 L 0.096 2.220446049250313e-16 L 0.3045 2.220446049250313e-16 L 0.3045 0.18000000000000027 L 0.096 0.18000000000000027 M 0.0915 1.3665000000000003 Q 0.07050000000000001 1.3665000000000003 0.04425 1.3635000000000002 Q 0.018000000000000002 1.3605000000000003 -0.0075 1.3552500000000003 Q -0.033 1.3500000000000003 -0.0495 1.3425000000000002 L -0.0495 1.2060000000000002 L 0.025500000000000002 1.2060000000000002 Q 0.06 1.2060000000000002 0.078 1.1872500000000001 Q 0.096 1.1685000000000003 0.096 1.1325000000000003 L 0.096 0.2955000000000002 L 0.3045 0.2955000000000002 L 0.3045 1.1490000000000002 Q 0.3045 1.2090000000000003 0.28425 1.2585000000000002 Q 0.264 1.3080000000000003 0.21825 1.3372500000000003 Q 0.17250000000000001 1.3665000000000003 0.0915 1.3665000000000003 M 0.811465576171875 1.1025000000000003 Q 0.728965576171875 1.1025000000000003 0.662965576171875 1.0845000000000002 Q 0.5969655761718751 1.0665000000000002 0.550465576171875 1.0342500000000003 Q 0.503965576171875 1.0020000000000002 0.479215576171875 0.9570000000000003 Q 0.454465576171875 0.9120000000000003 0.454465576171875 0.8550000000000002 Q 0.454465576171875 0.8490000000000002 0.454465576171875 0.8430000000000002 Q 0.454465576171875 0.8370000000000002 0.455965576171875 0.8340000000000003 L 0.656965576171875 0.8340000000000003 Q 0.656965576171875 0.8370000000000002 0.656965576171875 0.8400000000000003 Q 0.656965576171875 0.8430000000000002 0.656965576171875 0.8460000000000002 Q 0.658465576171875 0.8835000000000002 0.680965576171875 0.9067500000000003 Q 0.703465576171875 0.9300000000000003 0.740215576171875 0.9405000000000002 Q 0.776965576171875 0.9510000000000003 0.817465576171875 0.9510000000000003 Q 0.853465576171875 0.9510000000000003 0.887215576171875 0.9442500000000003 Q 0.920965576171875 0.9375000000000002 0.944215576171875 0.9195000000000002 Q 0.967465576171875 0.9015000000000002 0.967465576171875 0.8730000000000002 Q 0.967465576171875 0.8370000000000002 0.938215576171875 0.8175000000000002 Q 0.908965576171875 0.7980000000000003 0.861715576171875 0.7860000000000003 Q 0.814465576171875 0.7740000000000002 0.758965576171875 0.7590000000000002 Q 0.707965576171875 0.7470000000000002 0.656965576171875 0.7312500000000002 Q 0.605965576171875 0.7155000000000002 0.564715576171875 0.6900000000000002 Q 0.523465576171875 0.6645000000000003 0.497965576171875 0.6232500000000003 Q 0.472465576171875 0.5820000000000002 0.472465576171875 0.5190000000000002 Q 0.472465576171875 0.45750000000000024 0.49946557617187504 0.4117500000000003 Q 0.5264655761718751 0.3660000000000002 0.573715576171875 0.3360000000000002 Q 0.620965576171875 0.30600000000000027 0.6847155761718751 0.2917500000000002 Q 0.748465576171875 0.2775000000000002 0.8219655761718749 0.2775000000000002 Q 0.890965576171875 0.2775000000000002 0.950965576171875 0.2917500000000002 Q 1.010965576171875 0.30600000000000027 1.0559655761718751 0.3337500000000002 Q 1.100965576171875 0.36150000000000027 1.1264655761718751 0.4027500000000003 Q 1.151965576171875 0.4440000000000003 1.151965576171875 0.4950000000000002 Q 1.151965576171875 0.5055000000000003 1.151965576171875 0.5145000000000002 Q 1.151965576171875 0.5235000000000002 1.1504655761718752 0.5265000000000002 L 0.950965576171875 0.5265000000000002 L 0.950965576171875 0.5145000000000002 Q 0.950965576171875 0.48750000000000027 0.934465576171875 0.4687500000000002 Q 0.917965576171875 0.4500000000000002 0.887215576171875 0.4395000000000002 Q 0.856465576171875 0.42900000000000027 0.812965576171875 0.42900000000000027 Q 0.782965576171875 0.42900000000000027 0.758215576171875 0.4335000000000002 Q 0.733465576171875 0.4380000000000003 0.715465576171875 0.4470000000000002 Q 0.697465576171875 0.4560000000000002 0.687715576171875 0.4687500000000002 Q 0.677965576171875 0.48150000000000026 0.677965576171875 0.4995000000000003 Q 0.677965576171875 0.5250000000000002 0.699715576171875 0.5407500000000002 Q 0.721465576171875 0.5565000000000002 0.7574655761718749 0.5670000000000003 Q 0.793465576171875 0.5775000000000002 0.8369655761718751 0.5895000000000002 Q 0.890965576171875 0.6045000000000003 0.950215576171875 0.6187500000000002 Q 1.0094655761718752 0.6330000000000002 1.0604655761718749 0.6570000000000003 Q 1.111465576171875 0.6810000000000003 1.1429655761718749 0.7252500000000002 Q 1.174465576171875 0.7695000000000003 1.174465576171875 0.8445000000000003 Q 1.174465576171875 0.9165000000000002 1.146715576171875 0.9660000000000002 Q 1.1189655761718749 1.0155000000000003 1.069465576171875 1.0455000000000003 Q 1.019965576171875 1.0755000000000003 0.953965576171875 1.0890000000000002 Q 0.887965576171875 1.1025000000000003 0.811465576171875 1.1025000000000003 M 1.207439208984375 1.0845000000000002 L 1.493939208984375 0.6750000000000003 L 1.228439208984375 0.2955000000000002 L 1.4789392089843751 0.2955000000000002 L 1.628939208984375 0.5325000000000002 L 1.636439208984375 0.5325000000000002 L 1.7879392089843749 0.2955000000000002 L 2.023439208984375 0.2955000000000002 L 1.756439208984375 0.6735000000000002 L 2.038439208984375 1.0845000000000002 L 1.792439208984375 1.0845000000000002 L 1.621439208984375 0.8160000000000003 L 1.613939208984375 0.8160000000000003 L 1.442939208984375 1.0845000000000002 L 1.207439208984375 1.0845000000000002 M 2.066927490234375 0.7695000000000003 L 2.066927490234375 0.5865000000000002 L 2.446427490234375 0.5865000000000002 L 2.446427490234375 0.7695000000000003 L 2.066927490234375 0.7695000000000003 M 2.602439208984375 1.3515000000000001 L 2.602439208984375 0.2955000000000002 L 2.773439208984375 0.2955000000000002 L 2.791439208984375 0.40200000000000025 L 2.801939208984375 0.40200000000000025 Q 2.8409392089843752 0.33750000000000024 2.903939208984375 0.3075000000000002 Q 2.966939208984375 0.2775000000000002 3.043439208984375 0.2775000000000002 Q 3.142439208984375 0.2775000000000002 3.213689208984375 0.3210000000000002 Q 3.284939208984375 0.36450000000000027 3.323189208984375 0.4560000000000002 Q 3.361439208984375 0.5475000000000002 3.361439208984375 0.6915000000000002 Q 3.361439208984375 0.8310000000000002 3.322439208984375 0.9225000000000002 Q 3.283439208984375 1.0140000000000002 3.213689208984375 1.0582500000000001 Q 3.143939208984375 1.1025000000000003 3.050939208984375 1.1025000000000003 Q 2.999939208984375 1.1025000000000003 2.956439208984375 1.0912500000000003 Q 2.912939208984375 1.0800000000000003 2.878439208984375 1.0560000000000003 Q 2.843939208984375 1.0320000000000003 2.819939208984375 0.9975000000000003 L 2.810939208984375 0.9975000000000003 L 2.810939208984375 1.3515000000000001 L 2.602439208984375 1.3515000000000001 M 2.978939208984375 0.9315000000000002 Q 3.041939208984375 0.9315000000000002 3.078689208984375 0.9067500000000003 Q 3.115439208984375 0.8820000000000002 3.131939208984375 0.8317500000000002 Q 3.148439208984375 0.7815000000000003 3.148439208984375 0.7080000000000002 L 3.148439208984375 0.6735000000000002 Q 3.148439208984375 0.5985000000000003 3.131939208984375 0.5482500000000002 Q 3.115439208984375 0.4980000000000002 3.078689208984375 0.4732500000000003 Q 3.041939208984375 0.44850000000000023 2.978939208984375 0.44850000000000023 Q 2.920439208984375 0.44850000000000023 2.882939208984375 0.47550000000000026 Q 2.845439208984375 0.5025000000000003 2.827439208984375 0.5535000000000002 Q 2.809439208984375 0.6045000000000003 2.809439208984375 0.6765000000000002 L 2.809439208984375 0.7020000000000002 Q 2.809439208984375 0.7545000000000002 2.819939208984375 0.7972500000000002 Q 2.830439208984375 0.8400000000000003 2.850689208984375 0.8700000000000002 Q 2.870939208984375 0.9000000000000002 2.902439208984375 0.9157500000000003 Q 2.933939208984375 0.9315000000000002 2.978939208984375 0.9315000000000002 M 3.51439599609375 1.0845000000000002 L 3.51439599609375 0.2955000000000002 L 3.68689599609375 0.2955000000000002 L 3.70339599609375 0.4185000000000002 L 3.71389599609375 0.4185000000000002 Q 3.72889599609375 0.3795000000000003 3.7528959960937502 0.3472500000000003 Q 3.77689599609375 0.3150000000000003 3.81289599609375 0.2955000000000002 Q 3.84889599609375 0.27600000000000025 3.89689599609375 0.27600000000000025 Q 3.92239599609375 0.27600000000000025 3.94339599609375 0.2812500000000002 Q 3.9643959960937503 0.2865000000000002 3.9748959960937498 0.29100000000000026 L 3.9748959960937498 0.4800000000000002 L 3.91039599609375 0.4800000000000002 Q 3.86389599609375 0.4800000000000002 3.82864599609375 0.49275000000000024 Q 3.79339599609375 0.5055000000000003 3.76939599609375 0.5325000000000002 Q 3.74539599609375 0.5595000000000002 3.73414599609375 0.5985000000000003 Q 3.72289599609375 0.6375000000000002 3.72289599609375 0.6900000000000002 L 3.72289599609375 1.0845000000000002 L 3.51439599609375 1.0845000000000002 M 4.432388671875 1.1025000000000003 Q 4.303388671875 1.1025000000000003 4.213388671875 1.0582500000000001 Q 4.123388671875 1.0140000000000002 4.076888671875 0.9217500000000003 Q 4.030388671875 0.8295000000000002 4.030388671875 0.6900000000000002 Q 4.030388671875 0.5475000000000002 4.076888671875 0.4567500000000002 Q 4.123388671875 0.3660000000000002 4.213388671875 0.3217500000000002 Q 4.303388671875 0.2775000000000002 4.432388671875 0.2775000000000002 Q 4.564388671875 0.2775000000000002 4.653638671875 0.3217500000000002 Q 4.742888671875 0.3660000000000002 4.789388671875 0.4567500000000002 Q 4.835888671875 0.5475000000000002 4.835888671875 0.6900000000000002 Q 4.835888671875 0.8295000000000002 4.789388671875 0.9217500000000003 Q 4.742888671875 1.0140000000000002 4.653638671875 1.0582500000000001 Q 4.564388671875 1.1025000000000003 4.432388671875 1.1025000000000003 M 4.432388671875 0.9405000000000002 Q 4.5013886718750005 0.9405000000000002 4.542638671875 0.9150000000000003 Q 4.583888671875 0.8895000000000002 4.603388671875 0.8370000000000002 Q 4.622888671875 0.7845000000000002 4.622888671875 0.7080000000000002 L 4.622888671875 0.6720000000000002 Q 4.622888671875 0.5955000000000003 4.603388671875 0.5430000000000003 Q 4.583888671875 0.49050000000000027 4.542638671875 0.4642500000000003 Q 4.5013886718750005 0.4380000000000003 4.432388671875 0.4380000000000003 Q 4.364888671875 0.4380000000000003 4.323638671875 0.4642500000000003 Q 4.282388671875 0.49050000000000027 4.262888671875 0.5430000000000003 Q 4.243388671875 0.5955000000000003 4.243388671875 0.6720000000000002 L 4.243388671875 0.7080000000000002 Q 4.243388671875 0.7845000000000002 4.262888671875 0.8370000000000002 Q 4.282388671875 0.8895000000000002 4.323638671875 0.9150000000000003 Q 4.364888671875 0.9405000000000002 4.432388671875 0.9405000000000002 M 4.988852783203125 1.0845000000000002 L 4.988852783203125 0.2955000000000002 L 5.161352783203125 0.2955000000000002 L 5.177852783203125 0.4035000000000002 L 5.188352783203125 0.4035000000000002 Q 5.213852783203125 0.36450000000000027 5.249102783203125 0.3360000000000002 Q 5.284352783203125 0.3075000000000002 5.328602783203125 0.2925000000000002 Q 5.372852783203125 0.2775000000000002 5.423852783203125 0.2775000000000002 Q 5.498852783203125 0.2775000000000002 5.553602783203125 0.3075000000000002 Q 5.6083527832031255 0.33750000000000024 5.638352783203125 0.4035000000000002 L 5.648852783203125 0.4035000000000002 Q 5.674352783203125 0.36450000000000027 5.710352783203125 0.3360000000000002 Q 5.746352783203125 0.3075000000000002 5.792852783203125 0.2925000000000002 Q 5.839352783203125 0.2775000000000002 5.891852783203125 0.2775000000000002 Q 5.966852783203125 0.2775000000000002 6.021602783203125 0.3045000000000002 Q 6.076352783203125 0.33150000000000024 6.107852783203125 0.3922500000000002 Q 6.139352783203125 0.4530000000000002 6.139352783203125 0.5490000000000003 L 6.139352783203125 1.0845000000000002 L 5.930852783203125 1.0845000000000002 L 5.930852783203125 0.5865000000000002 Q 5.930852783203125 0.5490000000000003 5.922602783203125 0.5227500000000003 Q 5.914352783203125 0.4965000000000003 5.899352783203125 0.48075000000000023 Q 5.884352783203125 0.4650000000000002 5.861852783203125 0.45750000000000024 Q 5.839352783203125 0.4500000000000002 5.813852783203125 0.4500000000000002 Q 5.771852783203125 0.4500000000000002 5.738852783203125 0.47250000000000025 Q 5.705852783203125 0.4950000000000002 5.687102783203125 0.5340000000000003 Q 5.668352783203125 0.5730000000000002 5.668352783203125 0.6240000000000002 L 5.668352783203125 1.0845000000000002 L 5.459852783203125 1.0845000000000002 L 5.459852783203125 0.5865000000000002 Q 5.459852783203125 0.5490000000000003 5.451602783203125 0.5227500000000003 Q 5.4433527832031245 0.4965000000000003 5.428352783203125 0.48075000000000023 Q 5.413352783203125 0.4650000000000002 5.391602783203125 0.45750000000000024 Q 5.369852783203125 0.4500000000000002 5.342852783203125 0.4500000000000002 Q 5.302352783203125 0.4500000000000002 5.268602783203125 0.47250000000000025 Q 5.234852783203125 0.4950000000000002 5.216102783203125 0.5340000000000003 Q 5.197352783203125 0.5730000000000002 5.197352783203125 0.6240000000000002 L 5.197352783203125 1.0845000000000002 L 4.988852783203125 1.0845000000000002 M 6.325339599609375 1.3515000000000001 L 6.325339599609375 0.2955000000000002 L 6.496339599609375 0.2955000000000002 L 6.514339599609375 0.40200000000000025 L 6.524839599609375 0.40200000000000025 Q 6.563839599609375 0.33750000000000024 6.626839599609375 0.3075000000000002 Q 6.689839599609375 0.2775000000000002 6.766339599609375 0.2775000000000002 Q 6.865339599609375 0.2775000000000002 6.936589599609375 0.3210000000000002 Q 7.007839599609375 0.36450000000000027 7.046089599609375 0.4560000000000002 Q 7.084339599609375 0.5475000000000002 7.084339599609375 0.6915000000000002 Q 7.084339599609375 0.8310000000000002 7.045339599609375 0.9225000000000002 Q 7.006339599609375 1.0140000000000002 6.936589599609375 1.0582500000000001 Q 6.866839599609375 1.1025000000000003 6.773839599609375 1.1025000000000003 Q 6.722839599609375 1.1025000000000003 6.679339599609375 1.0912500000000003 Q 6.635839599609375 1.0800000000000003 6.601339599609375 1.0560000000000003 Q 6.566839599609375 1.0320000000000003 6.542839599609375 0.9975000000000003 L 6.533839599609375 0.9975000000000003 L 6.533839599609375 1.3515000000000001 L 6.325339599609375 1.3515000000000001 M 6.701839599609375 0.9315000000000002 Q 6.764839599609375 0.9315000000000002 6.801589599609375 0.9067500000000003 Q 6.838339599609375 0.8820000000000002 6.854839599609375 0.8317500000000002 Q 6.871339599609375 0.7815000000000003 6.871339599609375 0.7080000000000002 L 6.871339599609375 0.6735000000000002 Q 6.871339599609375 0.5985000000000003 6.854839599609375 0.5482500000000002 Q 6.838339599609375 0.4980000000000002 6.801589599609375 0.4732500000000003 Q 6.764839599609375 0.44850000000000023 6.701839599609375 0.44850000000000023 Q 6.643339599609375 0.44850000000000023 6.605839599609375 0.47550000000000026 Q 6.568339599609375 0.5025000000000003 6.550339599609375 0.5535000000000002 Q 6.532339599609375 0.6045000000000003 6.532339599609375 0.6765000000000002 L 6.532339599609375 0.7020000000000002 Q 6.532339599609375 0.7545000000000002 6.542839599609375 0.7972500000000002 Q 6.553339599609375 0.8400000000000003 6.573589599609375 0.8700000000000002 Q 6.593839599609375 0.9000000000000002 6.625339599609375 0.9157500000000003 Q 6.656839599609375 0.9315000000000002 6.701839599609375 0.9315000000000002 M 7.47279638671875 1.1025000000000003 Q 7.39779638671875 1.1025000000000003 7.35129638671875 1.0755000000000003 Q 7.30479638671875 1.0485000000000002 7.28379638671875 1.0027500000000003 Q 7.26279638671875 0.9570000000000003 7.26279638671875 0.9015000000000002 L 7.26279638671875 0.4560000000000002 L 7.16529638671875 0.4560000000000002 L 7.16529638671875 0.2955000000000002 L 7.27029638671875 0.2955000000000002 L 7.30929638671875 0.07050000000000023 L 7.47129638671875 0.07050000000000023 L 7.47129638671875 0.2955000000000002 L 7.61529638671875 0.2955000000000002 L 7.61529638671875 0.4560000000000002 L 7.47129638671875 0.4560000000000002 L 7.47129638671875 0.8670000000000002 Q 7.47129638671875 0.9030000000000002 7.48779638671875 0.9217500000000003 Q 7.5042963867187495 0.9405000000000002 7.54179638671875 0.9405000000000002 L 7.61529638671875 0.9405000000000002 L 7.61529638671875 1.0785000000000002 Q 7.59729638671875 1.0845000000000002 7.57329638671875 1.0897500000000002 Q 7.54929638671875 1.0950000000000002 7.52229638671875 1.0987500000000003 Q 7.49529638671875 1.1025000000000003 7.47279638671875 1.1025000000000003" fill="#000000" fill-rule="nonzero"></path></g><g></g></g><defs><clipPath id="SvgjsClipPath9219"><path d=" M 0.5127386222809753 -4.295581970433604 h 6.628789112859924 v 4.045581970433604 h -6.628789112859924 Z"></path></clipPath><clipPath id="SvgjsClipPath921722d02fdb-b2e1-49cc-8c0b-62553963e091"><path d=" M 0.5127386222809753 -4.295581970433604 L 7.141527735140899 -4.295581970433604 L 7.141527735140899 -0.25 L 0.5127386222809753 -0.25 Z"></path></clipPath></defs></svg>